<svg viewBox="0 0 100 100" fill="none" xmlns="http://www.w3.org/2000/svg">
    <path d="M75.897 52.661H24.103a4.512 4.512 0 0 1-4.506-4.506V15.63a4.511 4.511 0 0 1 4.506-4.507h51.794a4.511 4.511 0 0 1 4.506 4.507v32.524a4.511 4.511 0 0 1-4.506 4.506ZM24.103 13.468a2.165 2.165 0 0 0-2.163 2.163v32.524a2.165 2.165 0 0 0 2.163 2.162h51.794a2.165 2.165 0 0 0 2.162-2.162V15.63a2.165 2.165 0 0 0-2.162-2.163H24.103Z" fill="#000"/>
    <path d="M75.897 81.893H24.103a4.512 4.512 0 0 1-4.506-4.507V54.824a4.512 4.512 0 0 1 4.506-4.506h51.794a4.512 4.512 0 0 1 4.506 4.506v22.562a4.511 4.511 0 0 1-4.506 4.507ZM24.103 52.66a2.165 2.165 0 0 0-2.163 2.163v22.562a2.165 2.165 0 0 0 2.163 2.163h51.794a2.165 2.165 0 0 0 2.162-2.163V54.824a2.165 2.165 0 0 0-2.162-2.163H24.103Z" fill="#000"/>
    <path d="M95.494 81.893H82.566a4.511 4.511 0 0 1-4.506-4.507V37.844a4.511 4.511 0 0 1 4.506-4.506h12.928A4.512 4.512 0 0 1 100 37.844v39.542a4.512 4.512 0 0 1-4.506 4.507ZM82.566 35.68a2.165 2.165 0 0 0-2.163 2.163v39.542a2.165 2.165 0 0 0 2.163 2.163h12.927a2.165 2.165 0 0 0 2.163-2.163V37.844a2.165 2.165 0 0 0-2.163-2.163H82.566ZM17.434 81.893H4.507A4.512 4.512 0 0 1 0 77.386V37.844a4.512 4.512 0 0 1 4.506-4.506h12.928a4.512 4.512 0 0 1 4.506 4.506v39.542a4.511 4.511 0 0 1-4.506 4.507ZM4.506 35.68a2.165 2.165 0 0 0-2.162 2.163v39.542a2.165 2.165 0 0 0 2.162 2.163h12.928a2.165 2.165 0 0 0 2.162-2.163V37.844a2.165 2.165 0 0 0-2.162-2.163H4.506Z" fill="#000"/>
    <path d="M79.231 67.277H20.77a1.172 1.172 0 0 1 0-2.344H79.23a1.172 1.172 0 0 1 0 2.344ZM10.97 88.876A4.22 4.22 0 0 1 6.87 85.67l-1.164-4.667a1.172 1.172 0 0 1 1.137-1.455h8.257a1.172 1.172 0 0 1 1.137 1.455l-1.164 4.667a4.22 4.22 0 0 1-4.102 3.205Zm-2.628-6.983.8 3.211a1.884 1.884 0 0 0 3.656 0l.8-3.211H8.343ZM89.03 88.876a4.22 4.22 0 0 1-4.102-3.204l-1.164-4.668a1.172 1.172 0 0 1 1.137-1.455h8.257a1.172 1.172 0 0 1 1.137 1.455l-1.164 4.668a4.22 4.22 0 0 1-4.101 3.204ZM86.4 81.893l.801 3.211a1.884 1.884 0 0 0 3.655 0l.801-3.211h-5.257Z" fill="#000"/>
</svg>
