<svg viewBox="0 0 100 100" fill="none" xmlns="http://www.w3.org/2000/svg"><g clip-path="url(#a)" fill="#000"><path d="M84.685 33.76h-69.37a1.172 1.172 0 0 1-1.172-1.172V8.248c0-.648.525-1.173 1.172-1.173h69.37c.647 0 1.172.525 1.172 1.172v24.341c0 .647-.525 1.172-1.172 1.172Zm-68.198-2.344h67.026V9.42H16.487v21.997Z"/><path d="M79.307 33.76H20.693a1.172 1.172 0 0 1-1.172-1.172V13.625c0-.647.525-1.171 1.172-1.171h58.614c.647 0 1.172.524 1.172 1.171v18.963c0 .647-.525 1.172-1.172 1.172Zm-57.442-2.344h56.27V14.797h-56.27v16.62Z"/><path d="M46.466 33.76H24.227a4.712 4.712 0 0 1-4.706-4.706V17.16a4.712 4.712 0 0 1 4.706-4.707h22.239a4.711 4.711 0 0 1 4.706 4.707v11.894a4.711 4.711 0 0 1-4.706 4.706ZM24.227 14.797a2.365 2.365 0 0 0-2.362 2.363v11.894a2.365 2.365 0 0 0 2.362 2.362h22.239a2.365 2.365 0 0 0 2.362-2.362V17.16a2.365 2.365 0 0 0-2.362-2.363H24.227Z"/><path d="M75.772 33.76H53.534a4.712 4.712 0 0 1-4.706-4.706V17.16a4.712 4.712 0 0 1 4.706-4.707h22.238a4.711 4.711 0 0 1 4.706 4.707v11.894a4.711 4.711 0 0 1-4.706 4.706ZM53.534 14.797a2.365 2.365 0 0 0-2.362 2.363v11.894a2.365 2.365 0 0 0 2.362 2.362h22.238a2.365 2.365 0 0 0 2.363-2.362V17.16a2.365 2.365 0 0 0-2.363-2.363H53.534Z"/><path d="M85.533 92.925H14.467a4.712 4.712 0 0 1-4.706-4.706V36.122a4.712 4.712 0 0 1 4.706-4.706h71.066a4.711 4.711 0 0 1 4.706 4.706V88.22a4.712 4.712 0 0 1-4.706 4.706ZM14.467 33.76a2.365 2.365 0 0 0-2.363 2.362V88.22a2.365 2.365 0 0 0 2.363 2.362h71.066a2.365 2.365 0 0 0 2.362-2.362V36.122a2.365 2.365 0 0 0-2.362-2.362H14.467ZM85.984 9.419H14.016A4.26 4.26 0 0 1 9.76 5.164v-.909A4.26 4.26 0 0 1 14.016 0h71.968a4.26 4.26 0 0 1 4.255 4.255v.909a4.26 4.26 0 0 1-4.255 4.255ZM14.016 2.344a1.913 1.913 0 0 0-1.912 1.911v.909a1.913 1.913 0 0 0 1.912 1.911h71.968a1.914 1.914 0 0 0 1.912-1.911v-.909a1.914 1.914 0 0 0-1.912-1.911H14.016Z"/><path d="M85.984 100H14.016a4.26 4.26 0 0 1-4.255-4.255v-.909a4.26 4.26 0 0 1 4.255-4.255h71.968a4.26 4.26 0 0 1 4.255 4.255v.909A4.26 4.26 0 0 1 85.984 100Zm-71.968-7.075a1.914 1.914 0 0 0-1.912 1.911v.909a1.913 1.913 0 0 0 1.912 1.911h71.968a1.914 1.914 0 0 0 1.912-1.911v-.909a1.914 1.914 0 0 0-1.912-1.911H14.016Z"/></g><defs><clipPath id="a"><path fill="#fff" d="M0 0h100v100H0z"/></clipPath></defs></svg>