<svg viewBox="0 0 24 24" fill="none" xmlns="http://www.w3.org/2000/svg"><path fill-rule="evenodd" clip-rule="evenodd" d="M5 4.75c-.69 0-1.25.56-1.25 1.25v14c0 .69.56 1.25 1.25 1.25h14c.69 0 1.25-.56 1.25-1.25V6c0-.69-.56-1.25-1.25-1.25H5ZM2.25 6A2.75 2.75 0 0 1 5 3.25h14A2.75 2.75 0 0 1 21.75 6v14A2.75 2.75 0 0 1 19 22.75H5A2.75 2.75 0 0 1 2.25 20V6Z" fill="#000"/><path fill-rule="evenodd" clip-rule="evenodd" d="M16 1.25a.75.75 0 0 1 .75.75v4a.75.75 0 0 1-1.5 0V2a.75.75 0 0 1 .75-.75ZM8 1.25a.75.75 0 0 1 .75.75v4a.75.75 0 0 1-1.5 0V2A.75.75 0 0 1 8 1.25ZM2.25 10A.75.75 0 0 1 3 9.25h18a.75.75 0 0 1 0 1.5H3a.75.75 0 0 1-.75-.75Z" fill="#000"/></svg>