<svg width="100" height="100" viewBox="0 0 100 100" fill="none" xmlns="http://www.w3.org/2000/svg"><g clip-path="url(#a)" fill="#000"><path d="M67.788 91.13H32.212a1.172 1.172 0 0 1-1.172-1.171V62.713c0-.647.525-1.172 1.172-1.172h35.576c.647 0 1.172.524 1.172 1.172v27.245c0 .647-.525 1.171-1.172 1.171Zm-34.404-2.343h33.232V63.886H33.384v24.9Z"/><path d="M67.788 96.145H32.212a1.172 1.172 0 0 1-1.172-1.172v-5.015c0-.647.525-1.172 1.172-1.172h35.576c.647 0 1.172.525 1.172 1.172v5.015c0 .647-.525 1.172-1.172 1.172ZM33.384 93.8h33.232v-2.67H33.384v2.67ZM67.788 63.886H32.212a1.172 1.172 0 0 1-1.172-1.172V51.162c0-.647.525-1.172 1.172-1.172h35.576c.647 0 1.172.525 1.172 1.172v11.552c0 .647-.525 1.172-1.172 1.172Zm-34.404-2.344h33.232v-9.208H33.384v9.208Z"/><path d="M50 60.736a3.798 3.798 0 1 1 0-7.596 3.798 3.798 0 0 1 0 7.596Zm0-5.252a1.454 1.454 0 1 0 0 2.908 1.454 1.454 0 0 0 0-2.908ZM59.867 60.736a3.798 3.798 0 1 1 0-7.596 3.798 3.798 0 0 1 0 7.596Zm0-5.252a1.454 1.454 0 1 0 0 2.908 1.454 1.454 0 0 0 0-2.908ZM40.133 60.736a3.798 3.798 0 1 1 0-7.596 3.798 3.798 0 0 1 0 7.596Zm0-5.252a1.454 1.454 0 1 0 0 2.908 1.454 1.454 0 0 0 0-2.908ZM60.909 70.737H39.092a2.756 2.756 0 0 1 0-5.512h21.817a2.756 2.756 0 1 1 .002 5.512h-.002Zm-21.817-3.169a.412.412 0 0 0 0 .825h21.817a.412.412 0 1 0 0-.825H39.092Z"/><path d="M59.867 87.389H40.133a1.172 1.172 0 0 1-1.172-1.172V69.565c0-.647.525-1.172 1.172-1.172h19.734c.647 0 1.172.525 1.172 1.172v16.652c0 .647-.525 1.172-1.172 1.172Zm-18.562-2.344h17.39V70.737h-17.39v14.308ZM42.191 52.334a1.172 1.172 0 0 1-1.172-1.172v-2.908a1.172 1.172 0 0 1 2.344 0v2.908c0 .648-.524 1.172-1.172 1.172ZM47.747 52.334a1.172 1.172 0 0 1-1.172-1.172v-1.736h-1.563a1.172 1.172 0 0 1 0-2.344h2.735c.647 0 1.172.525 1.172 1.172v2.908c0 .648-.525 1.172-1.172 1.172ZM36.636 52.334a1.172 1.172 0 0 1-1.172-1.172v-2.908c0-.647.524-1.172 1.172-1.172h2.734a1.172 1.172 0 0 1 0 2.344h-1.563v1.736c0 .648-.524 1.172-1.171 1.172ZM57.809 52.334a1.172 1.172 0 0 1-1.172-1.172v-2.908a1.172 1.172 0 0 1 2.344 0v2.908c0 .648-.525 1.172-1.172 1.172ZM52.253 52.334a1.172 1.172 0 0 1-1.172-1.172v-2.908c0-.647.525-1.172 1.172-1.172h2.735a1.172 1.172 0 0 1 0 2.344h-1.563v1.736c0 .648-.524 1.172-1.172 1.172ZM63.364 52.334a1.172 1.172 0 0 1-1.171-1.172v-1.736H60.63a1.172 1.172 0 0 1 0-2.344h2.734c.648 0 1.172.525 1.172 1.172v2.908c0 .648-.524 1.172-1.172 1.172ZM73.452 56.602h-2.098a1.172 1.172 0 0 1 0-2.344h2.098a1.172 1.172 0 0 1 0 2.344Z"/><path d="M77.018 96.145h-9.23a1.172 1.172 0 0 1-1.172-1.172v-43.81c0-.648.525-1.172 1.172-1.172h9.23c.647 0 1.172.524 1.172 1.171v43.81c0 .648-.525 1.173-1.172 1.173ZM68.96 93.8h6.886V52.334H68.96v41.467Z"/><path d="M98.828 74.24h-21.81a1.172 1.172 0 0 1-1.172-1.172V51.162c0-.647.525-1.172 1.172-1.172h21.81c.647 0 1.172.525 1.172 1.172v21.906c0 .647-.525 1.172-1.172 1.172ZM78.19 71.896h19.466V52.334H78.19v19.562Z"/><path d="M90.734 56.602h-5.621a1.172 1.172 0 0 1 0-2.344h5.62a1.172 1.172 0 0 1 0 2.344ZM19.502 56.602h-5.62a1.172 1.172 0 0 1 0-2.344h5.62a1.172 1.172 0 0 1 0 2.344ZM98.828 96.145h-21.81a1.172 1.172 0 0 1-1.172-1.172V73.068c0-.647.525-1.172 1.172-1.172h21.81c.647 0 1.172.524 1.172 1.172v21.905c0 .647-.525 1.172-1.172 1.172ZM78.19 93.8h19.466V74.24H78.19V93.8Z"/><path d="M90.734 78.507h-5.621a1.172 1.172 0 0 1 0-2.344h5.62a1.172 1.172 0 0 1 0 2.344ZM16.692 96.145H1.172A1.172 1.172 0 0 1 0 94.973v-32.26c0-.646.525-1.171 1.172-1.171h15.52c.647 0 1.172.524 1.172 1.172v32.259c0 .647-.525 1.172-1.172 1.172ZM2.344 93.8H15.52V63.886H2.344V93.8Z"/><path d="M32.212 96.145h-15.52a1.172 1.172 0 0 1-1.172-1.172v-32.26c0-.646.525-1.171 1.172-1.171h15.52c.647 0 1.172.524 1.172 1.172v32.259c0 .647-.525 1.172-1.172 1.172ZM17.864 93.8H31.04V63.886H17.864V93.8Z"/><path d="M20.398 81.966a1.172 1.172 0 0 1-1.172-1.172v-3.901a1.172 1.172 0 0 1 2.343 0v3.901c0 .647-.524 1.172-1.171 1.172ZM12.986 81.966a1.172 1.172 0 0 1-1.171-1.172v-3.901a1.172 1.172 0 0 1 2.343 0v3.901c0 .647-.524 1.172-1.171 1.172ZM32.212 63.886H1.172A1.172 1.172 0 0 1 0 62.714V51.162c0-.647.525-1.172 1.172-1.172h31.04c.647 0 1.172.525 1.172 1.172v11.552c0 .647-.525 1.172-1.172 1.172ZM2.344 61.542H31.04v-9.208H2.344v9.208ZM66.467 27.777H33.533a2.496 2.496 0 0 1-2.493-2.493V21.92a2.495 2.495 0 0 1 2.493-2.493h32.934a2.496 2.496 0 0 1 2.493 2.493v3.365a2.496 2.496 0 0 1-2.493 2.493ZM33.533 21.77a.15.15 0 0 0-.15.149v3.365a.15.15 0 0 0 .15.15h32.934a.15.15 0 0 0 .15-.15V21.92a.15.15 0 0 0-.15-.15H33.533Z"/><path d="M64.024 21.77H35.976a2.47 2.47 0 0 1-1.522-4.414l.9-.705A14.668 14.668 0 0 0 41.02 5.028c0-.648.525-1.172 1.172-1.172h15.618c.647 0 1.172.524 1.172 1.172a14.667 14.667 0 0 0 5.664 11.623l.9.705a2.469 2.469 0 0 1-1.52 4.414ZM43.324 6.2a16.984 16.984 0 0 1-6.525 12.297l-.9.704a.126.126 0 0 0 .077.225h28.048a.126.126 0 0 0 .078-.224l-.9-.705A16.984 16.984 0 0 1 56.675 6.2H43.324ZM95.2 27.777H76.552a2.937 2.937 0 0 1 0-5.874H95.2a2.937 2.937 0 1 1 0 5.874Zm-18.648-3.53a.593.593 0 0 0 0 1.186H95.2a.593.593 0 0 0 0-1.186H76.552ZM23.448 27.777H4.8a2.937 2.937 0 0 1 0-5.874h18.648a2.937 2.937 0 1 1 0 5.874ZM4.8 24.247a.593.593 0 1 0 0 1.186h18.648a.593.593 0 1 0 0-1.186H4.8Z"/><path d="M21.577 24.247H16.81a1.172 1.172 0 0 1-1.171-1.172v-4.029c0-.647.524-1.171 1.171-1.171h4.767c.647 0 1.172.524 1.172 1.171v4.03c0 .646-.524 1.171-1.172 1.171Zm-3.595-2.344h2.424v-1.685h-2.424v1.685Z"/><path d="M22.7 20.218h-7.013a1.172 1.172 0 0 1 0-2.343h7.014a1.172 1.172 0 0 1 0 2.343ZM11.438 24.247H6.67A1.172 1.172 0 0 1 5.5 23.075v-4.029c0-.647.524-1.171 1.171-1.171h4.768c.647 0 1.171.524 1.171 1.171v4.03c0 .646-.524 1.171-1.171 1.171Zm-3.596-2.344h2.424v-1.685H7.842v1.685Z"/><path d="M12.56 20.218H5.548a1.172 1.172 0 0 1 0-2.343h7.013a1.172 1.172 0 1 1 0 2.343ZM21.577 20.218H16.81a1.172 1.172 0 0 1-1.171-1.172v-4.028c0-.648.524-1.172 1.171-1.172h4.767c.647 0 1.172.524 1.172 1.171v4.03c0 .646-.524 1.171-1.172 1.171Zm-3.595-2.344h2.424V16.19h-2.424v1.685Z"/><path d="M22.7 16.19h-7.013a1.172 1.172 0 0 1 0-2.344h7.014a1.172 1.172 0 0 1 0 2.343ZM11.438 20.218H6.67A1.172 1.172 0 0 1 5.5 19.046v-4.028c0-.648.524-1.172 1.171-1.172h4.768c.647 0 1.171.524 1.171 1.171v4.03c0 .646-.524 1.171-1.171 1.171Zm-3.596-2.344h2.424V16.19H7.842v1.685Z"/><path d="M12.56 16.19H5.548a1.172 1.172 0 0 1 0-2.344h7.013a1.172 1.172 0 1 1 0 2.343ZM85.876 24.247a7.564 7.564 0 0 1-6.405-11.587c.215-.34.59-.548.992-.548H91.29c.402 0 .776.207.991.548a7.564 7.564 0 0 1-6.404 11.587Zm-4.721-9.79a5.22 5.22 0 1 0 9.443 0h-9.443Z"/><path d="M85.767 14.456a1.172 1.172 0 0 1-1.172-1.172v-7.54a1.172 1.172 0 0 1 2.344 0v7.54c0 .647-.525 1.172-1.172 1.172Z"/><path d="M85.767 14.456a1.172 1.172 0 0 1-.829-2L88.993 8.4a1.172 1.172 0 0 1 1.657 1.657l-4.055 4.055c-.22.22-.517.344-.828.343Z"/><path d="M85.767 14.456c-.31 0-.61-.123-.829-.343l-4.055-4.055a1.172 1.172 0 1 1 1.64-1.675l.017.017 4.056 4.056a1.172 1.172 0 0 1-.83 2ZM60.857 49.426h-5.715a5.877 5.877 0 0 1-5.87-5.87V40.8c0-.647.525-1.172 1.172-1.172h15.111c.648 0 1.172.525 1.172 1.172v2.755a5.877 5.877 0 0 1-5.87 5.87Zm-9.241-7.453v1.583a3.53 3.53 0 0 0 3.526 3.527h5.715a3.53 3.53 0 0 0 3.527-3.527v-1.583H51.616Z"/><path d="M67.788 44.038h-2.233a1.172 1.172 0 0 1 0-2.343h2.233a1.172 1.172 0 1 1 0 2.343ZM50.062 44.038H47.83a1.172 1.172 0 0 1 0-2.343h2.232a1.172 1.172 0 0 1 0 2.343Z"/><path d="M65.555 41.973H50.444a1.172 1.172 0 0 1-.966-1.836c1.64-2.385 4.905-3.867 8.522-3.867s6.882 1.482 8.521 3.867a1.172 1.172 0 0 1-.966 1.836Zm-11.964-2.344h8.818a10.076 10.076 0 0 0-8.818 0Z"/><path d="M56.569 38.703c-.287 0-.565-.106-.779-.297a3.329 3.329 0 1 1 4.42 0 1.172 1.172 0 1 1-1.557-1.751.985.985 0 1 0-1.305 0 1.172 1.172 0 0 1-.78 2.047ZM13.903 52.334h-4.95a1.172 1.172 0 0 1-1.172-1.172V38.575c0-.647.525-1.171 1.172-1.171h4.95c.647 0 1.172.524 1.172 1.171v12.587c0 .648-.525 1.172-1.172 1.172Zm-3.778-2.343h2.606V39.747h-2.606v10.244Z"/><path d="M8.953 52.334h-4.95a1.172 1.172 0 0 1-1.171-1.172V38.575c0-.647.524-1.171 1.171-1.171h4.95c.647 0 1.172.524 1.172 1.171v12.587c0 .648-.525 1.172-1.172 1.172Zm-3.778-2.343h2.606V39.747H5.175v10.244ZM24.774 52.334h-2.21a4.056 4.056 0 0 1-4.05-4.05v-4.11c0-.647.524-1.172 1.171-1.172h7.968c.647 0 1.172.525 1.172 1.172v4.11a4.055 4.055 0 0 1-4.05 4.05Zm-3.916-6.988v2.937a1.709 1.709 0 0 0 1.707 1.707h2.21a1.709 1.709 0 0 0 1.707-1.707v-2.937h-5.624Z"/><path d="M28.339 45.346H19a2.216 2.216 0 0 1-2.213-2.213v-1.216A2.216 2.216 0 0 1 19 39.704h9.339a2.216 2.216 0 0 1 2.213 2.213v1.215a2.216 2.216 0 0 1-2.213 2.214Zm-9.209-2.344h9.079v-.955H19.13v.955ZM77.97 52.334h-6.034a1.172 1.172 0 0 1-1.172-1.172v-8.246c0-.647.525-1.172 1.172-1.172h6.034c.647 0 1.172.524 1.172 1.172v8.246c0 .648-.525 1.172-1.172 1.172Zm-4.862-2.344h3.69v-5.902h-3.69v5.902Z"/><path d="M77.97 44.087h-6.034a1.172 1.172 0 0 1-1.172-1.171v-3.603c0-.647.525-1.172 1.172-1.172h6.034c.647 0 1.172.525 1.172 1.172v3.603c0 .647-.525 1.172-1.172 1.172Zm-4.862-2.343h3.69v-1.259h-3.69v1.259ZM92.437 48.37c-1.915 0-3.414-1.842-3.414-4.195s1.5-4.196 3.414-4.196c1.915 0 3.414 1.843 3.414 4.196 0 2.353-1.5 4.196-3.414 4.196Zm0-6.047c-.505 0-1.07.792-1.07 1.852s.565 1.852 1.07 1.852c.505 0 1.07-.792 1.07-1.852s-.565-1.852-1.07-1.852Z"/><path d="M92.437 42.3c-.546 0-1.02-.377-1.142-.91l-1.791-7.813a3.01 3.01 0 1 1 5.867 0l-1.792 7.813c-.122.533-.596.91-1.142.91Zm0-10.061a.666.666 0 0 0-.649.814l.649 2.83.649-2.83a.666.666 0 0 0-.65-.814ZM84.008 42.3c-.546 0-1.02-.377-1.142-.91l-1.792-7.813a3.01 3.01 0 1 1 5.867 0L85.15 41.39c-.122.533-.596.91-1.142.91Zm0-10.061a.666.666 0 0 0-.649.814l.649 2.831.649-2.83a.666.666 0 0 0-.65-.815Z"/><path d="M86.7 46.088h-5.385a1.172 1.172 0 0 1-1.16-1.006 4.714 4.714 0 0 1 1.083-3.765c.757-.873 1.767-1.374 2.77-1.374 1.003 0 2.013.5 2.77 1.374a4.714 4.714 0 0 1 1.083 3.765 1.172 1.172 0 0 1-1.16 1.006Zm-4.165-2.344h2.945a2.274 2.274 0 0 0-.473-.892c-.298-.343-.69-.566-1-.566-.308 0-.7.222-.998.566a2.277 2.277 0 0 0-.474.892Z"/></g><defs><clipPath id="a"><path fill="#fff" d="M0 0h100v100H0z"/></clipPath></defs></svg>