<svg viewBox="0 0 125 75" fill="none" xmlns="http://www.w3.org/2000/svg"><path d="M31.833 29.488h56.55v-7.981h-56.55V8.042h56.55V.061H27.478c-2.024 0-3.68 1.645-3.68 3.655v39.298h8.035V29.488Z" fill="#44C697"/><path d="M97.584 0h-4.417v42.953h8.035V3.656C101.264 1.645 99.608 0 97.584 0Z" fill="#1E2E36"/><path d="M107.581 27.965V49.29H17.419V27.965H4.6a4.579 4.579 0 0 0-4.6 4.57v12.124c0 2.559 2.085 4.57 4.6 4.57h2.944l1.288 14.987V75h3.312l3.864-10.784h92.984L112.856 75h3.312V64.216l1.288-14.988h2.944c2.576 0 4.6-2.071 4.6-4.57V32.536c0-2.56-2.085-4.57-4.6-4.57h-12.819Z" fill="#1E2E36"/></svg>