<svg viewBox="0 0 30 31" fill="none" xmlns="http://www.w3.org/2000/svg"><g clip-path="url(#a)" fill-rule="evenodd" clip-rule="evenodd" fill="#000"><path d="M11.25 26.438a.312.312 0 1 0 0 .624.312.312 0 0 0 0-.625Zm-2.188.312a2.188 2.188 0 1 1 4.376 0 2.188 2.188 0 0 1-4.376 0ZM25 26.438a.312.312 0 1 0 0 .624.312.312 0 0 0 0-.625Zm-2.188.312a2.188 2.188 0 1 1 4.376 0 2.188 2.188 0 0 1-4.375 0ZM.313 1.75c0-.518.42-.938.937-.938h5c.447 0 .832.316.92.754l1.1 5.496h20.48a.938.938 0 0 1 .92 1.114l-2 10.494a3.437 3.437 0 0 1-3.428 2.767H12.108a3.438 3.438 0 0 1-3.427-2.766L6.59 8.23a.932.932 0 0 1-.018-.089L5.482 2.687H1.25a.938.938 0 0 1-.938-.937Zm8.332 7.188 1.875 9.367a1.563 1.563 0 0 0 1.562 1.258H24.268a1.562 1.562 0 0 0 1.562-1.255v-.003l1.787-9.367H8.645Z"/></g><defs><clipPath id="a"><path fill="#fff" transform="translate(0 .5)" d="M0 0h30v30H0z"/></clipPath></defs></svg>