<svg viewBox="0 0 100 100" fill="none" xmlns="http://www.w3.org/2000/svg"><g clip-path="url(#a)" fill="#000"><path d="M93.545 42.075H6.455a1.172 1.172 0 0 1-1.172-1.172V15.43c0-.647.525-1.172 1.172-1.172h87.09c.647 0 1.172.524 1.172 1.172v25.472c0 .647-.525 1.172-1.172 1.172ZM7.627 39.73h84.746V16.602H7.627v23.129Z"/><path d="M93.545 67.547H6.455a1.172 1.172 0 0 1-1.172-1.172V40.903c0-.648.525-1.172 1.172-1.172h87.09c.647 0 1.172.524 1.172 1.172v25.472c0 .647-.525 1.172-1.172 1.172ZM7.627 65.203h84.746V42.075H7.627v23.128Z"/><path d="M93.545 93.019H6.455a1.172 1.172 0 0 1-1.172-1.172V66.375c0-.647.525-1.172 1.172-1.172h87.09c.647 0 1.172.525 1.172 1.172v25.472c0 .647-.525 1.172-1.172 1.172ZM7.627 90.675h84.746V67.547H7.627v23.128ZM52.192 29.339h-4.384a1.172 1.172 0 1 1 0-2.344h4.384a1.172 1.172 0 0 1 0 2.344ZM52.192 54.81h-4.384a1.172 1.172 0 1 1 0-2.343h4.384a1.172 1.172 0 0 1 0 2.344Z"/><path d="M52.192 80.283h-4.384a1.172 1.172 0 1 1 0-2.344h4.384a1.172 1.172 0 0 1 0 2.344ZM96.875 16.603H3.125A3.129 3.129 0 0 1 0 13.478v-3.372a3.129 3.129 0 0 1 3.125-3.125h93.75A3.129 3.129 0 0 1 100 10.106v3.372a3.129 3.129 0 0 1-3.125 3.125ZM3.125 9.325c-.431 0-.78.35-.781.781v3.372c0 .43.35.78.781.78h93.75c.431 0 .78-.35.781-.78v-3.372c0-.431-.35-.78-.781-.781H3.125Z"/></g><defs><clipPath id="a"><path fill="#fff" d="M0 0h100v100H0z"/></clipPath></defs></svg>